<svg width="375" height="375" viewBox="0 0 375 375" fill="none" xmlns="http://www.w3.org/2000/svg">
<rect width="375" height="375" fill="black"/>
<path d="M186.243 242H166.63V178.071L132.12 238.781C131.271 240.328 130.074 241.501 128.527 242.299C127.029 243.098 125.408 243.497 123.661 243.497C121.964 243.497 120.367 243.098 118.87 242.299C117.423 241.501 116.275 240.328 115.426 238.781L80.7669 178.071V242H61.3036V142.962C61.3036 140.716 61.9524 138.72 63.25 136.973C64.5974 135.227 66.3441 134.054 68.4901 133.455C69.5381 133.206 70.5861 133.131 71.6341 133.23C72.6821 133.28 73.6803 133.505 74.6285 133.904C75.6266 134.254 76.5249 134.778 77.3234 135.476C78.1219 136.125 78.7956 136.924 79.3446 137.872L123.661 214.901L167.977 137.872C169.125 135.975 170.697 134.628 172.693 133.829C174.739 133.031 176.86 132.906 179.056 133.455C181.152 134.054 182.874 135.227 184.221 136.973C185.569 138.72 186.243 140.716 186.243 142.962V242ZM314.85 232.194C314.85 233.591 314.6 234.888 314.101 236.086C313.602 237.284 312.903 238.332 312.005 239.23C311.157 240.079 310.134 240.752 308.936 241.251C307.738 241.75 306.44 242 305.043 242H234.826C233.029 242 231.083 241.8 228.987 241.401C226.941 240.952 224.895 240.278 222.848 239.38C220.852 238.482 218.931 237.334 217.084 235.936C215.238 234.489 213.591 232.767 212.144 230.771C210.746 228.725 209.623 226.38 208.775 223.735C207.927 221.04 207.502 218.02 207.502 214.677V161.976C207.502 160.18 207.702 158.258 208.101 156.212C208.55 154.116 209.224 152.07 210.122 150.074C211.021 148.028 212.194 146.081 213.641 144.235C215.088 142.388 216.81 140.766 218.806 139.369C220.852 137.922 223.198 136.774 225.843 135.925C228.488 135.077 231.482 134.653 234.826 134.653H313.951V154.116H234.826C232.281 154.116 230.334 154.79 228.987 156.137C227.639 157.485 226.966 159.481 226.966 162.126V214.677C226.966 217.172 227.639 219.118 228.987 220.516C230.384 221.863 232.331 222.537 234.826 222.537H295.386V198.133H243.584V178.52H305.043C306.44 178.52 307.738 178.794 308.936 179.343C310.134 179.842 311.157 180.541 312.005 181.439C312.903 182.338 313.602 183.386 314.101 184.583C314.6 185.731 314.85 186.979 314.85 188.326V232.194Z" fill="white"/>
</svg>
