<svg width="21" height="21" viewBox="0 0 21 21" fill="none" xmlns="http://www.w3.org/2000/svg">
<path d="M10.5 0.259873C4.69941 0.259873 0 4.96322 0 10.7599C0 15.4015 3.00825 19.3357 7.17741 20.7237C7.70438 20.8228 7.89469 20.498 7.89469 20.2171C7.89469 19.9677 7.88878 19.3082 7.88484 18.4327C4.96256 19.0654 4.347 17.0212 4.347 17.0212C3.86859 15.811 3.17822 15.4862 3.17822 15.4862C2.22797 14.8372 3.25369 14.8509 3.25369 14.8509C4.30631 14.9225 4.86019 15.9305 4.86019 15.9305C5.79666 17.537 7.31719 17.0723 7.91897 16.802C8.01084 16.1254 8.2845 15.6601 8.58244 15.4009C6.25144 15.1377 3.80034 14.2354 3.80034 10.2119C3.80034 9.06281 4.20722 8.127 4.87987 7.392C4.76372 7.12884 4.40803 6.05915 4.97241 4.61278C4.97241 4.61278 5.85113 4.33256 7.85991 5.68968C8.70056 5.45672 9.59306 5.34056 10.4849 5.33465C11.3774 5.34056 12.2692 5.45737 13.1099 5.68968C15.1069 4.33256 15.9849 4.61278 15.9849 4.61278C16.5487 6.05915 16.193 7.12818 16.0906 7.392C16.7567 8.127 17.1636 9.06347 17.1636 10.2119C17.1636 14.2446 14.7092 15.1338 12.3756 15.3904C12.7404 15.7047 13.0823 16.3511 13.0823 17.3322C13.0823 18.7366 13.0692 19.868 13.0692 20.2099C13.0692 20.4829 13.253 20.811 13.7937 20.7053C17.9937 19.3318 20.9987 15.3943 20.9987 10.7592C20.9987 4.96256 16.2993 0.259216 10.4987 0.259216L10.5 0.259873Z" fill="white"/>
</svg>
