<svg width="21" height="18" viewBox="0 0 21 18" fill="none" xmlns="http://www.w3.org/2000/svg">
<path d="M20.5241 2.15662C20.1942 2.30295 19.855 2.42644 19.5085 2.5267C19.9188 2.06266 20.2316 1.51666 20.4226 0.919181C20.4654 0.785255 20.421 0.638662 20.3109 0.551071C20.201 0.463413 20.0482 0.452913 19.9272 0.524652C19.1912 0.961181 18.3971 1.27489 17.5645 1.45834C16.7258 0.638797 15.5866 0.172394 14.409 0.172394C11.9232 0.172394 9.90084 2.19469 9.90084 4.68042C9.90084 4.87619 9.91323 5.07088 9.93776 5.26286C6.85313 4.99203 3.98541 3.4759 2.01615 1.06029C1.94597 0.974187 1.83785 0.927784 1.72716 0.936658C1.6164 0.945329 1.51689 1.00779 1.46094 1.10378C1.06153 1.78912 0.850379 2.57296 0.850379 3.37049C0.850379 4.45673 1.2382 5.48736 1.92328 6.29267C1.71497 6.22053 1.51283 6.13036 1.3199 6.02326C1.21632 5.96562 1.08991 5.9665 0.987014 6.0255C0.884047 6.0845 0.819489 6.19303 0.816779 6.31164C0.816305 6.33163 0.816305 6.35161 0.816305 6.37186C0.816305 7.99327 1.68896 9.45304 3.02313 10.2487C2.90851 10.2372 2.79396 10.2206 2.68016 10.1989C2.56283 10.1765 2.44218 10.2176 2.36306 10.3071C2.2838 10.3965 2.25758 10.5211 2.2941 10.6349C2.78793 12.1767 4.05938 13.3108 5.59645 13.6566C4.32161 14.455 2.86374 14.8733 1.33331 14.8733C1.01398 14.8733 0.692811 14.8545 0.378489 14.8173C0.222343 14.7988 0.0730402 14.891 0.0198628 15.0394C-0.0333147 15.188 0.0230466 15.3536 0.155889 15.4388C2.12196 16.6994 4.39531 17.3657 6.73004 17.3657C11.3198 17.3657 14.1911 15.2013 15.7915 13.3857C17.7872 11.1217 18.9317 8.12496 18.9317 5.16403C18.9317 5.04033 18.9298 4.91541 18.926 4.7909C19.7134 4.19769 20.3913 3.47976 20.9429 2.65459C21.0267 2.52927 21.0176 2.36364 20.9206 2.24828C20.8236 2.13285 20.662 2.09552 20.5241 2.15662Z" fill="white"/>
</svg>
