{
  "accessors": [
    {
      "bufferView": 2,
      "componentType": 5126,
      "count": 65532,
      "max": [
        32.45170211791992,
        32.45170211791992,
        31.32243537902832
      ],
      "min": [
        -32.45170974731445,
        -32.45170211791992,
        -32.45170211791992
      ],
      "type": "VEC3"
    },
    {
      "bufferView": 2,
      "byteOffset": 786384,
      "componentType": 5126,
      "count": 65532,
      "max": [
        0.998335063457489,
        0.9983350038528442,
        0.9983350038528442
      ],
      "min": [
        -0.9983351230621338,
        -0.998335063457489,
        -0.9983349442481995
      ],
      "type": "VEC3"
    },
    {
      "bufferView": 1,
      "componentType": 5126,
      "count": 65532,
      "max": [
        0.4499841630458832,
        0.4780893623828888
      ],
      "min": [
        -0.47808948159217834,
        -0.44998398423194885
      ],
      "type": "VEC2"
    },
    {
      "bufferView": 0,
      "componentType": 5125,
      "count": 98298,
      "type": "SCALAR"
    },
    {
      "bufferView": 2,
      "byteOffset": 1572768,
      "componentType": 5126,
      "count": 65532,
      "max": [
        32.172061920166016,
        32.504310607910156,
        32.45170211791992
      ],
      "min": [
        -32.50431823730469,
        -32.45170593261719,
        -32.17206573486328
      ],
      "type": "VEC3"
    },
    {
      "bufferView": 2,
      "byteOffset": 2359152,
      "componentType": 5126,
      "count": 65532,
      "max": [
        0.9993906617164612,
        0.999359130859375,
        0.9993906617164612
      ],
      "min": [
        -0.9993906617164612,
        -0.999359130859375,
        -0.9993906617164612
      ],
      "type": "VEC3"
    },
    {
      "bufferView": 1,
      "byteOffset": 524256,
      "componentType": 5126,
      "count": 65532,
      "max": [
        0.4499841034412384,
        0.47808951139450073
      ],
      "min": [
        -0.47808951139450073,
        -0.404508501291275
      ],
      "type": "VEC2"
    },
    {
      "bufferView": 0,
      "byteOffset": 393192,
      "componentType": 5125,
      "count": 98298,
      "type": "SCALAR"
    },
    {
      "bufferView": 2,
      "byteOffset": 3145536,
      "componentType": 5126,
      "count": 65532,
      "max": [
        32.50431442260742,
        32.765804290771484,
        32.504310607910156
      ],
      "min": [
        -32.700538635253906,
        -32.70054244995117,
        -32.504310607910156
      ],
      "type": "VEC3"
    },
    {
      "bufferView": 2,
      "byteOffset": 3931920,
      "componentType": 5126,
      "count": 65532,
      "max": [
        0.9999371767044067,
        0.9997864365577698,
        0.9996345639228821
      ],
      "min": [
        -0.9999371767044067,
        -0.999786376953125,
        -0.9996345639228821
      ],
      "type": "VEC3"
    },
    {
      "bufferView": 1,
      "byteOffset": 1048512,
      "componentType": 5126,
      "count": 65532,
      "max": [
        0.3914535939693451,
        0.4072028398513794
      ],
      "min": [
        -0.4045085608959198,
        -0.4045085608959198
      ],
      "type": "VEC2"
    },
    {
      "bufferView": 0,
      "byteOffset": 786384,
      "componentType": 5125,
      "count": 143610,
      "type": "SCALAR"
    },
    {
      "bufferView": 2,
      "byteOffset": 4718304,
      "componentType": 5126,
      "count": 65532,
      "max": [
        32.76580047607422,
        32.504310607910156,
        32.765804290771484
      ],
      "min": [
        -32.76580810546875,
        -32.765804290771484,
        -32.765804290771484
      ],
      "type": "VEC3"
    },
    {
      "bufferView": 2,
      "byteOffset": 5504688,
      "componentType": 5126,
      "count": 65532,
      "max": [
        0.999786376953125,
        0.9999371767044067,
        0.9999371767044067
      ],
      "min": [
        -0.999786376953125,
        -0.9999371767044067,
        -0.9999371767044067
      ],
      "type": "VEC3"
    },
    {
      "bufferView": 1,
      "byteOffset": 1572768,
      "componentType": 5126,
      "count": 65532,
      "max": [
        0.45664530992507935,
        0.48886749148368835
      ],
      "min": [
        -0.48886749148368835,
        -0.456645131111145
      ],
      "type": "VEC2"
    },
    {
      "bufferView": 0,
      "byteOffset": 1360824,
      "componentType": 5125,
      "count": 269079,
      "type": "SCALAR"
    },
    {
      "bufferView": 2,
      "byteOffset": 6291072,
      "componentType": 5126,
      "count": 31232,
      "max": [
        32.45170211791992,
        32.45170211791992,
        32.45170211791992
      ],
      "min": [
        -32.45170974731445,
        -32.74400329589844,
        -32.45170211791992
      ],
      "type": "VEC3"
    },
    {
      "bufferView": 2,
      "byteOffset": 6665856,
      "componentType": 5126,
      "count": 31232,
      "max": [
        0.9999372363090515,
        0.9999372363090515,
        0.999937117099762
      ],
      "min": [
        -0.9999371767044067,
        -0.999937117099762,
        -0.9999371767044067
      ],
      "type": "VEC3"
    },
    {
      "bufferView": 1,
      "byteOffset": 2097024,
      "componentType": 5126,
      "count": 31232,
      "max": [
        0.4499841630458832,
        0.47808951139450073
      ],
      "min": [
        -0.47808951139450073,
        -0.44998398423194885
      ],
      "type": "VEC2"
    },
    {
      "bufferView": 0,
      "byteOffset": 2437140,
      "componentType": 5125,
      "count": 58875,
      "type": "SCALAR"
    },
    {
      "bufferView": 2,
      "byteOffset": 7040640,
      "componentType": 5126,
      "count": 559,
      "max": [
        19.22687530517578,
        19.22687530517578,
        19.22687530517578
      ],
      "min": [
        -19.22687530517578,
        -19.22687530517578,
        -19.22687530517578
      ],
      "type": "VEC3"
    },
    {
      "bufferView": 2,
      "byteOffset": 7047348,
      "componentType": 5126,
      "count": 559,
      "max": [
        1.0,
        1.0,
        1.0
      ],
      "min": [
        -1.0,
        -1.0,
        -1.0
      ],
      "type": "VEC3"
    },
    {
      "bufferView": 1,
      "byteOffset": 2346880,
      "componentType": 5126,
      "count": 559,
      "max": [
        1.000000238418579,
        1.0
      ],
      "min": [
        0.0,
        -1.1920928955078125e-07
      ],
      "type": "VEC2"
    },
    {
      "bufferView": 0,
      "byteOffset": 2672640,
      "componentType": 5125,
      "count": 2880,
      "type": "SCALAR"
    }
  ],
  "asset": {
    "extras": {
      "author": "Mashud786 (https://sketchfab.com/Mashud786)",
      "license": "CC-BY-4.0 (http://creativecommons.org/licenses/by/4.0/)",
      "source": "https://sketchfab.com/3d-models/dark-orb-1f2a74fe4150409d879a6c00c11eeb1c",
      "title": "Dark Orb"
    },
    "generator": "Sketchfab-12.68.0",
    "version": "2.0"
  },
  "bufferViews": [
    {
      "buffer": 0,
      "byteLength": 2684160,
      "name": "floatBufferViews",
      "target": 34963
    },
    {
      "buffer": 0,
      "byteLength": 2351352,
      "byteOffset": 2684160,
      "byteStride": 8,
      "name": "floatBufferViews",
      "target": 34962
    },
    {
      "buffer": 0,
      "byteLength": 7054056,
      "byteOffset": 5035512,
      "byteStride": 12,
      "name": "floatBufferViews",
      "target": 34962
    }
  ],
  "buffers": [
    {
      "byteLength": 12089568,
      "uri": "scene.bin"
    }
  ],
  "materials": [
    {
      "doubleSided": true,
      "name": "17_-_Old_Copper_1",
      "pbrMetallicRoughness": {
        "baseColorFactor": [
          0.00669929178067783,
          9.558548705886863e-05,
          0.007476436392684676,
          1.0
        ],
        "metallicFactor": 0.7191704819753267,
        "roughnessFactor": 0.6
      }
    },
    {
      "doubleSided": true,
      "emissiveFactor": [
        0.37500641447506744,
        0.03547493246665187,
        0.3800536726064904
      ],
      "name": "17_-_Old_Copper_1_0",
      "pbrMetallicRoughness": {
        "baseColorFactor": [
          0.4407813563710318,
          0.0057866104481621985,
          0.9213560469775339,
          1.0
        ],
        "metallicFactor": 0.4820437286053907,
        "roughnessFactor": 0.03762259149140568
      }
    }
  ],
  "meshes": [
    {
      "name": "Hedra001_17 - Old Copper #1_0",
      "primitives": [
        {
          "attributes": {
            "NORMAL": 1,
            "POSITION": 0,
            "TEXCOORD_0": 2
          },
          "indices": 3,
          "material": 0,
          "mode": 4
        }
      ]
    },
    {
      "name": "Hedra001_17 - Old Copper #1_0",
      "primitives": [
        {
          "attributes": {
            "NORMAL": 5,
            "POSITION": 4,
            "TEXCOORD_0": 6
          },
          "indices": 7,
          "material": 0,
          "mode": 4
        }
      ]
    },
    {
      "name": "Hedra001_17 - Old Copper #1_0",
      "primitives": [
        {
          "attributes": {
            "NORMAL": 9,
            "POSITION": 8,
            "TEXCOORD_0": 10
          },
          "indices": 11,
          "material": 0,
          "mode": 4
        }
      ]
    },
    {
      "name": "Hedra001_17 - Old Copper #1_0",
      "primitives": [
        {
          "attributes": {
            "NORMAL": 13,
            "POSITION": 12,
            "TEXCOORD_0": 14
          },
          "indices": 15,
          "material": 0,
          "mode": 4
        }
      ]
    },
    {
      "name": "Hedra001_17 - Old Copper #1_0",
      "primitives": [
        {
          "attributes": {
            "NORMAL": 17,
            "POSITION": 16,
            "TEXCOORD_0": 18
          },
          "indices": 19,
          "material": 0,
          "mode": 4
        }
      ]
    },
    {
      "name": "Sphere001_17 - Old Copper #1_0",
      "primitives": [
        {
          "attributes": {
            "NORMAL": 21,
            "POSITION": 20,
            "TEXCOORD_0": 22
          },
          "indices": 23,
          "material": 1,
          "mode": 4
        }
      ]
    }
  ],
  "nodes": [
    {
      "children": [
        1
      ],
      "matrix": [
        1.0,
        0.0,
        0.0,
        0.0,
        0.0,
        2.220446049250313e-16,
        -1.0,
        0.0,
        0.0,
        1.0,
        2.220446049250313e-16,
        0.0,
        0.0,
        0.0,
        0.0,
        1.0
      ],
      "name": "Sketchfab_model"
    },
    {
      "children": [
        2
      ],
      "matrix": [
        1.0,
        0.0,
        0.0,
        0.0,
        0.0,
        0.0,
        1.0,
        0.0,
        0.0,
        -1.0,
        0.0,
        0.0,
        0.0,
        0.0,
        0.0,
        1.0
      ],
      "name": "630a0a33f1da4ec3a89531fe151c5cdf.fbx"
    },
    {
      "children": [
        3,
        9
      ],
      "name": "RootNode"
    },
    {
      "children": [
        4,
        5,
        6,
        7,
        8
      ],
      "matrix": [
        1.0,
        0.0,
        0.0,
        0.0,
        0.0,
        2.220446049250313e-16,
        -1.0,
        0.0,
        0.0,
        1.0,
        2.220446049250313e-16,
        0.0,
        0.0,
        0.0,
        0.0,
        1.0
      ],
      "name": "Hedra001"
    },
    {
      "mesh": 0,
      "name": "Hedra001_17 - Old Copper #1_0"
    },
    {
      "mesh": 1,
      "name": "Hedra001_17 - Old Copper #1_0"
    },
    {
      "mesh": 2,
      "name": "Hedra001_17 - Old Copper #1_0"
    },
    {
      "mesh": 3,
      "name": "Hedra001_17 - Old Copper #1_0"
    },
    {
      "mesh": 4,
      "name": "Hedra001_17 - Old Copper #1_0"
    },
    {
      "children": [
        10
      ],
      "matrix": [
        1.0,
        0.0,
        0.0,
        0.0,
        0.0,
        2.220446049250313e-16,
        -1.0,
        0.0,
        0.0,
        1.0,
        2.220446049250313e-16,
        0.0,
        0.0,
        0.0,
        0.0,
        1.0
      ],
      "name": "Sphere001"
    },
    {
      "mesh": 5,
      "name": "Sphere001_17 - Old Copper #1_0"
    }
  ],
  "scene": 0,
  "scenes": [
    {
      "name": "Sketchfab_Scene",
      "nodes": [
        0
      ]
    }
  ]
}
